<svg width="422" height="422" viewBox="0 0 422 422" fill="none" xmlns="http://www.w3.org/2000/svg">
<path d="M206.799 179C187.924 179 183.5 197 154.191 197C127.576 197 106 175.51 106 149C106 122.49 127.576 101 154.191 101C184.5 101 189 120.5 206.799 120.5C224.598 120.5 229.5 101 259.809 101C286.314 101 308 122.49 308 149C308 175.51 286.424 197 259.809 197C230 197 225.674 179 206.799 179Z" fill="white"/>
<path fill-rule="evenodd" clip-rule="evenodd" d="M154 295C167.255 295 178 284.255 178 271C178 257.745 167.255 247 154 247C140.745 247 130 257.745 130 271C130 284.255 140.745 295 154 295ZM154 319C180.51 319 202 297.51 202 271C202 244.49 180.51 223 154 223C127.49 223 106 244.49 106 271C106 297.51 127.49 319 154 319Z" fill="white"/>
<path fill-rule="evenodd" clip-rule="evenodd" d="M48 283C54.6274 283 60 277.627 60 271C60 264.373 54.6274 259 48 259C41.3726 259 36 264.373 36 271C36 277.627 41.3726 283 48 283ZM48 319C74.5097 319 96 297.51 96 271C96 244.49 74.5097 223 48 223C21.4903 223 0 244.49 0 271C0 297.51 21.4903 319 48 319Z" fill="white"/>
<path d="M96 149C96 175.51 74.5097 197 48 197C21.4903 197 0 175.51 0 149C0 122.49 21.4903 101 48 101C74.5097 101 96 122.49 96 149Z" fill="white"/>
<path d="M234.312 319L255.062 221.75H275.562L254.938 319H234.312Z" fill="white"/>
<path d="M284.5 320.25C281.5 320.25 278.896 319.396 276.688 317.688C274.479 315.938 272.771 313.479 271.562 310.312C270.396 307.146 269.812 303.396 269.812 299.062C269.812 295.438 270.167 291.333 270.875 286.75C271.583 282.167 272.646 277.562 274.062 272.938C275.521 268.271 277.354 263.979 279.562 260.062C281.771 256.104 284.396 252.938 287.438 250.562C290.479 248.146 293.938 246.938 297.812 246.938C299.604 246.938 301.292 247.25 302.875 247.875C304.5 248.5 305.958 249.521 307.25 250.938C308.583 252.354 309.667 254.271 310.5 256.688H310.875L314.188 248.188H332.125L317 319H300.375L299.875 310.562H299.375C297.917 312.396 296.458 314.042 295 315.5C293.583 316.958 292.021 318.125 290.312 319C288.646 319.833 286.708 320.25 284.5 320.25ZM293.75 303C295.583 303 297.146 302.021 298.438 300.062C299.771 298.062 300.875 295.667 301.75 292.875C302.625 290.083 303.312 287.479 303.812 285.062C304.729 281.104 305.292 278.188 305.5 276.312C305.75 274.396 305.875 272.833 305.875 271.625C305.875 269.25 305.562 267.521 304.938 266.438C304.312 265.312 303.354 264.75 302.062 264.75C300.771 264.75 299.542 265.521 298.375 267.062C297.25 268.604 296.229 270.604 295.312 273.062C294.396 275.521 293.604 278.167 292.938 281C292.312 283.792 291.812 286.5 291.438 289.125C291.104 291.75 290.938 293.979 290.938 295.812C290.938 298.188 291.167 299.979 291.625 301.188C292.125 302.396 292.833 303 293.75 303Z" fill="white"/>
<path d="M362.25 320.25C360.292 320.25 358.5 319.917 356.875 319.25C355.292 318.583 353.875 317.625 352.625 316.375C351.417 315.083 350.354 313.521 349.438 311.688H349.062L345.375 319H328.688L349.438 221.75H369.938L365.438 242.688C365.312 243.396 365.104 244.354 364.812 245.562C364.521 246.771 364.167 248.125 363.75 249.625C363.333 251.125 362.875 252.667 362.375 254.25H362.625C364.083 252.375 365.542 250.917 367 249.875C368.458 248.792 369.979 248.042 371.562 247.625C373.188 247.167 374.938 246.938 376.812 246.938C379.688 246.938 382.188 247.792 384.312 249.5C386.479 251.208 388.167 253.625 389.375 256.75C390.583 259.875 391.188 263.604 391.188 267.938C391.188 271.938 390.792 276.292 390 281C389.25 285.667 388.104 290.312 386.562 294.938C385.021 299.562 383.083 303.792 380.75 307.625C378.458 311.417 375.771 314.479 372.688 316.812C369.604 319.104 366.125 320.25 362.25 320.25ZM358.812 303C359.896 303 360.979 302.25 362.062 300.75C363.146 299.208 364.146 297.229 365.062 294.812C366.021 292.354 366.854 289.708 367.562 286.875C368.312 284.042 368.896 281.292 369.312 278.625C369.729 275.958 369.938 273.667 369.938 271.75C369.938 269.417 369.667 267.667 369.125 266.5C368.625 265.333 367.875 264.75 366.875 264.75C365.625 264.75 364.458 265.292 363.375 266.375C362.292 267.417 361.292 268.833 360.375 270.625C359.5 272.417 358.729 274.438 358.062 276.688C357.396 278.896 356.812 281.188 356.312 283.562C355.854 285.896 355.5 288.146 355.25 290.312C355.042 292.479 354.938 294.396 354.938 296.062C354.938 298.438 355.25 300.188 355.875 301.312C356.542 302.438 357.521 303 358.812 303Z" fill="white"/>
<path d="M402.25 320.562C398.958 320.562 396.458 319.833 394.75 318.375C393.083 316.875 392.25 314.688 392.25 311.812C392.25 307.854 393.5 304.333 396 301.25C398.5 298.167 402.104 296.625 406.812 296.625C409.688 296.625 411.938 297.375 413.562 298.875C415.229 300.375 416.062 302.479 416.062 305.188C416.062 309.854 414.646 313.583 411.812 316.375C409.021 319.167 405.833 320.562 402.25 320.562Z" fill="white"/>
</svg>
